<svg width="26" height="26" viewBox="0 0 26 26" fill="none" xmlns="http://www.w3.org/2000/svg">
<path d="M16.7914 5.95904L19.8555 9.02317M3.25 22.7504L3.3014 22.3906C3.48331 21.1173 3.57426 20.4806 3.78115 19.8862C3.96473 19.3588 4.21551 18.8572 4.52731 18.3939C4.87869 17.8717 5.33346 17.4169 6.24297 16.5075L18.8616 3.88881C19.7078 3.04268 21.0796 3.04267 21.9258 3.88881C22.7719 4.73495 22.7719 6.10681 21.9258 6.95294L9.07556 19.8031C8.25044 20.6283 7.83788 21.0408 7.36797 21.3689C6.95086 21.6601 6.50101 21.9014 6.02765 22.0877C5.49435 22.2976 4.9224 22.413 3.77859 22.6438L3.25 22.7504Z" stroke="#FFA500" stroke-width="2" stroke-linecap="round" stroke-linejoin="round"/>
</svg>
