<svg width="26" height="26" viewBox="0 0 26 26" fill="none" xmlns="http://www.w3.org/2000/svg">
<g clip-path="url(#clip0_293_66)">
<path d="M15.8153 8.70899L11.6449 13.7109L10.1849 11.9606C10.0484 11.7968 9.88101 11.6614 9.69222 11.5624C9.50342 11.4633 9.29696 11.4023 9.08461 11.383C8.87227 11.3637 8.6582 11.3864 8.45463 11.4498C8.25106 11.5133 8.06198 11.6162 7.89818 11.7527C7.73438 11.8892 7.59907 12.0566 7.49997 12.2454C7.40088 12.4342 7.33994 12.6406 7.32063 12.853C7.30133 13.0653 7.32404 13.2794 7.38746 13.483C7.45089 13.6865 7.55379 13.8756 7.69029 14.0394L10.3976 17.2894C10.5497 17.4725 10.7403 17.6199 10.9558 17.7211C11.1713 17.8223 11.4064 17.8748 11.6445 17.875C11.8826 17.8751 12.1178 17.8229 12.3334 17.722C12.549 17.6211 12.7398 17.4739 12.8922 17.291L18.3099 10.791C18.4476 10.6273 18.5517 10.4381 18.616 10.2341C18.6804 10.0301 18.7039 9.81546 18.6851 9.6024C18.6663 9.38933 18.6056 9.18207 18.5066 8.99251C18.4075 8.80295 18.2719 8.63482 18.1077 8.49776C17.9435 8.36071 17.7539 8.25743 17.5496 8.19385C17.3454 8.13028 17.1306 8.10765 16.9176 8.12728C16.7047 8.1469 16.4976 8.20839 16.3085 8.30821C16.1193 8.40804 15.9517 8.54424 15.8153 8.70899Z" fill="black"/>
<path d="M13 0C10.4288 0 7.91543 0.762437 5.77759 2.19089C3.63975 3.61935 1.97351 5.64968 0.989572 8.02512C0.00563276 10.4006 -0.251811 13.0144 0.249797 15.5362C0.751405 18.0579 1.98954 20.3743 3.80762 22.1924C5.6257 24.0105 7.94208 25.2486 10.4638 25.7502C12.9856 26.2518 15.5995 25.9944 17.9749 25.0104C20.3503 24.0265 22.3807 22.3603 23.8091 20.2224C25.2376 18.0846 26 15.5712 26 13C25.9963 9.55331 24.6255 6.24884 22.1883 3.81167C19.7512 1.37449 16.4467 0.0036706 13 0ZM13 22.75C11.0716 22.75 9.18657 22.1782 7.5832 21.1068C5.97982 20.0355 4.73013 18.5127 3.99218 16.7312C3.25423 14.9496 3.06114 12.9892 3.43735 11.0979C3.81356 9.20655 4.74215 7.46927 6.10571 6.10571C7.46928 4.74215 9.20656 3.81355 11.0979 3.43734C12.9892 3.06114 14.9496 3.25422 16.7312 3.99217C18.5127 4.73013 20.0355 5.97981 21.1068 7.58319C22.1782 9.18657 22.75 11.0716 22.75 13C22.7472 15.585 21.7191 18.0633 19.8912 19.8912C18.0633 21.719 15.585 22.7472 13 22.75Z" fill="black"/>
</g>
<defs>
<clipPath id="clip0_293_66">
<rect width="26" height="26" fill="white"/>
</clipPath>
</defs>
</svg>
