<svg width="90" height="90" viewBox="0 0 90 90" fill="none" xmlns="http://www.w3.org/2000/svg">
<path d="M52.8125 42.1875C50.0511 42.1875 47.8125 39.9489 47.8125 37.1875V16.875C47.8125 15.3217 46.5533 14.0625 45 14.0625C43.4467 14.0625 42.1875 15.3217 42.1875 16.875V37.1875C42.1875 39.9489 39.9489 42.1875 37.1875 42.1875H16.875C15.3217 42.1875 14.0625 43.4467 14.0625 45C14.0625 46.5533 15.3217 47.8125 16.875 47.8125H37.1875C39.9489 47.8125 42.1875 50.0511 42.1875 52.8125V73.125C42.1875 74.6783 43.4467 75.9375 45 75.9375C46.5533 75.9375 47.8125 74.6783 47.8125 73.125V52.8125C47.8125 50.0511 50.0511 47.8125 52.8125 47.8125H73.125C74.6783 47.8125 75.9375 46.5533 75.9375 45C75.9375 43.4467 74.6783 42.1875 73.125 42.1875H52.8125Z" fill="black"/>
</svg>
