<svg width="26" height="26" viewBox="0 0 26 26" fill="none" xmlns="http://www.w3.org/2000/svg">
<path d="M12.2796 6.65249L13.0001 7.40105L13.7206 6.65248C15.902 4.38601 18.1645 4.20253 19.8291 4.96341C21.5567 5.7531 22.8334 7.63857 22.8334 9.89853C22.8334 12.2205 21.8857 14.0129 20.5101 15.5619C19.372 16.8434 17.9963 17.9042 16.6386 18.951C16.3144 19.201 15.9912 19.4503 15.6725 19.7015C15.1009 20.1521 14.6026 20.538 14.1258 20.8167C13.6486 21.0955 13.2879 21.2083 13.0001 21.2083C12.7123 21.2083 12.3516 21.0955 11.8744 20.8167C11.3976 20.538 10.8993 20.1521 10.3277 19.7015C10.009 19.4503 9.68579 19.201 9.36154 18.951C8.00391 17.9042 6.62816 16.8434 5.49009 15.5619C4.11449 14.0129 3.16675 12.2205 3.16675 9.89853C3.16675 7.63857 4.44348 5.7531 6.17108 4.9634C7.83565 4.20253 10.0981 4.386 12.2796 6.65249Z" stroke="black" stroke-width="2"/>
</svg>
