<svg width="26" height="26" viewBox="0 0 26 26" fill="none" xmlns="http://www.w3.org/2000/svg">
<path d="M9.91601 5.85907C11.2882 3.39746 11.9743 2.16666 13.0001 2.16666C14.0259 2.16666 14.712 3.39745 16.0841 5.85906L16.4391 6.49591C16.8291 7.19541 17.024 7.54518 17.3281 7.77595C17.6321 8.00672 18.0106 8.09238 18.7679 8.26371L19.4573 8.41969C22.1219 9.0226 23.4542 9.32405 23.7712 10.3434C24.0882 11.3626 23.1799 12.4248 21.3633 14.549L20.8934 15.0986C20.3771 15.7023 20.119 16.0041 20.0029 16.3775C19.8868 16.7509 19.9258 17.1536 20.0038 17.9591L20.0749 18.6923C20.3495 21.5265 20.4869 22.9436 19.6571 23.5735C18.8271 24.2035 17.5797 23.6291 15.0847 22.4805L14.4393 22.1832C13.7304 21.8568 13.3759 21.6935 13.0001 21.6935C12.6243 21.6935 12.2698 21.8568 11.5609 22.1832L10.9154 22.4805C8.42049 23.6291 7.17303 24.2035 6.34316 23.5735C5.5133 22.9436 5.65062 21.5265 5.92527 18.6923L5.99631 17.9591C6.07437 17.1536 6.11339 16.7509 5.99726 16.3775C5.88115 16.0041 5.62305 15.7023 5.10683 15.0986L4.63686 14.549C2.82027 12.4248 1.91197 11.3626 2.22896 10.3434C2.54594 9.32405 3.87826 9.0226 6.54292 8.41969L7.2323 8.26371C7.9895 8.09238 8.36811 8.00672 8.6721 7.77595C8.9761 7.54518 9.17107 7.19542 9.56101 6.49591L9.91601 5.85907Z" stroke="black" stroke-width="2"/>
</svg>
