<svg width="40" height="40" viewBox="0 0 40 40" fill="none" xmlns="http://www.w3.org/2000/svg">
<g filter="url(#filter0_d_284_30)">
<rect x="4" y="3" width="32" height="32" rx="16" fill="black"/>
<path d="M17.6277 13.507C18.6832 11.6135 19.211 10.6667 20.0001 10.6667C20.7892 10.6667 21.3169 11.6135 22.3724 13.507L22.6455 13.9969C22.9455 14.535 23.0954 14.804 23.3293 14.9815C23.5632 15.159 23.8543 15.2249 24.4368 15.3567L24.9672 15.4767C27.0168 15.9405 28.0417 16.1724 28.2856 16.9565C28.5294 17.7405 27.8307 18.5576 26.4333 20.1916L26.0718 20.6144C25.6747 21.0787 25.4762 21.3109 25.3868 21.5981C25.2976 21.8854 25.3276 22.1951 25.3876 22.8147L25.4422 23.3787C25.6535 25.5589 25.7592 26.6489 25.1208 27.1335C24.4824 27.6181 23.5228 27.1763 21.6037 26.2927L21.1072 26.064C20.5618 25.8129 20.2892 25.6874 20.0001 25.6874C19.711 25.6874 19.4383 25.8129 18.893 26.064L18.3965 26.2927C16.4773 27.1763 15.5177 27.6181 14.8794 27.1335C14.241 26.6489 14.3466 25.5589 14.5579 23.3787L14.6126 22.8147C14.6726 22.1951 14.7026 21.8854 14.6133 21.5981C14.524 21.3109 14.3254 21.0787 13.9283 20.6144L13.5668 20.1916C12.1695 18.5576 11.4708 17.7405 11.7146 16.9565C11.9584 16.1724 12.9833 15.9405 15.033 15.4767L15.5633 15.3567C16.1458 15.2249 16.437 15.159 16.6709 14.9815C16.9047 14.804 17.0547 14.535 17.3546 13.9969L17.6277 13.507Z" fill="#FFC973"/>
</g>
<defs>
<filter id="filter0_d_284_30" x="0" y="0" width="40" height="40" filterUnits="userSpaceOnUse" color-interpolation-filters="sRGB">
<feFlood flood-opacity="0" result="BackgroundImageFix"/>
<feColorMatrix in="SourceAlpha" type="matrix" values="0 0 0 0 0 0 0 0 0 0 0 0 0 0 0 0 0 0 127 0" result="hardAlpha"/>
<feOffset dy="1"/>
<feGaussianBlur stdDeviation="2"/>
<feComposite in2="hardAlpha" operator="out"/>
<feColorMatrix type="matrix" values="0 0 0 0 0 0 0 0 0 0 0 0 0 0 0 0 0 0 0.25 0"/>
<feBlend mode="hard-light" in2="BackgroundImageFix" result="effect1_dropShadow_284_30"/>
<feBlend mode="normal" in="SourceGraphic" in2="effect1_dropShadow_284_30" result="shape"/>
</filter>
</defs>
</svg>
