<svg width="26" height="26" viewBox="0 0 26 26" fill="none" xmlns="http://www.w3.org/2000/svg">
<g clip-path="url(#clip0_285_4)">
<path fill-rule="evenodd" clip-rule="evenodd" d="M0.866699 3.47854C0.866699 2.5147 1.64661 1.73333 2.61189 1.73333H23.3882C24.352 1.73333 25.1334 2.51326 25.1334 3.47854V24.2548C25.1334 25.2186 24.3535 26 23.3882 26H2.61189C1.64805 26 0.866699 25.2201 0.866699 24.2548V3.47854ZM2.60003 8.66667H23.4V24.2667H2.60003V8.66667ZM17.3334 19.9333V13H16.0463L13.8667 15.1933L14.7074 16.0769L15.8595 14.9023V19.9333H17.3334ZM10.4 19.9333C11.9818 19.9333 13 19.1182 13 17.961C13 16.9547 12.1301 16.4214 11.4578 16.351C12.1894 16.2201 12.9012 15.6667 12.9012 14.8214C12.9012 13.7044 11.9521 13 10.4099 13C9.25327 13 8.42285 13.4528 7.88901 14.0667L8.59091 14.9623C9.05555 14.5094 9.62893 14.2679 10.2715 14.2679C10.9536 14.2679 11.4974 14.5295 11.4974 15.0629C11.4974 15.556 11.0031 15.7774 10.2715 15.7774C10.0244 15.7774 9.56961 15.7773 9.45098 15.7673V17.0554C9.54984 17.0453 9.99471 17.0352 10.2715 17.0352C11.1909 17.0352 11.5962 17.2767 11.5962 17.8101C11.5962 18.3132 11.1514 18.6654 10.3506 18.6654C9.70801 18.6654 8.98635 18.3836 8.54148 17.9006L7.80003 18.8566C8.28444 19.4604 9.19395 19.9333 10.4 19.9333ZM6.0667 0.866667C6.0667 0.388021 6.43769 0 6.94149 0H8.65858C9.14171 0 9.53337 0.402019 9.53337 0.866667V1.73333H6.0667V0.866667ZM16.4667 0.866667C16.4667 0.388021 16.8377 0 17.3415 0H19.0586C19.5417 0 19.9334 0.402019 19.9334 0.866667V1.73333H16.4667V0.866667Z" fill="black"/>
</g>
<defs>
<clipPath id="clip0_285_4">
<rect width="26" height="26" fill="white"/>
</clipPath>
</defs>
</svg>
