<svg width="40" height="40" viewBox="0 0 40 40" fill="none" xmlns="http://www.w3.org/2000/svg">
<g filter="url(#filter0_d_306_243)">
<rect x="4" y="3" width="32" height="32" rx="16" fill="black"/>
<g clip-path="url(#clip0_306_243)">
<path d="M22.1655 15.6992L18.9575 19.5469L17.8344 18.2004C17.7294 18.0744 17.6006 17.9704 17.4554 17.8941C17.3102 17.8179 17.1514 17.771 16.988 17.7562C16.8247 17.7413 16.66 17.7588 16.5034 17.8076C16.3468 17.8564 16.2014 17.9355 16.0754 18.0405C15.9494 18.1455 15.8453 18.2743 15.7691 18.4195C15.6928 18.5648 15.646 18.7236 15.6311 18.8869C15.6163 19.0503 15.6337 19.2149 15.6825 19.3715C15.7313 19.5281 15.8105 19.6736 15.9155 19.7996L17.998 22.2996C18.115 22.4404 18.2616 22.5538 18.4274 22.6316C18.5932 22.7095 18.774 22.7499 18.9572 22.75C19.1403 22.7501 19.3212 22.7099 19.4871 22.6323C19.653 22.5547 19.7997 22.4415 19.9169 22.3008L24.0844 17.3008C24.1903 17.1749 24.2704 17.0293 24.3199 16.8724C24.3694 16.7155 24.3875 16.5504 24.373 16.3865C24.3586 16.2226 24.3119 16.0631 24.2357 15.9173C24.1595 15.7715 24.0552 15.6422 23.9289 15.5368C23.8026 15.4313 23.6567 15.3519 23.4996 15.303C23.3425 15.2541 23.1773 15.2367 23.0134 15.2518C22.8496 15.2669 22.6903 15.3142 22.5448 15.3909C22.3993 15.4677 22.2704 15.5725 22.1655 15.6992Z" fill="#5DAF4A"/>
<path d="M20 9C18.0222 9 16.0888 9.58649 14.4443 10.6853C12.7998 11.7841 11.5181 13.3459 10.7612 15.1732C10.0043 17.0004 9.8063 19.0111 10.1922 20.9509C10.578 22.8907 11.5304 24.6725 12.9289 26.0711C14.3275 27.4696 16.1093 28.422 18.0491 28.8079C19.9889 29.1937 21.9996 28.9957 23.8268 28.2388C25.6541 27.4819 27.2159 26.2002 28.3147 24.5557C29.4135 22.9112 30 20.9778 30 19C29.9972 16.3487 28.9427 13.8068 27.068 11.9321C25.1932 10.0573 22.6513 9.00282 20 9ZM20 26.5C18.5166 26.5 17.0666 26.0601 15.8332 25.236C14.5999 24.4119 13.6386 23.2406 13.0709 21.8701C12.5033 20.4997 12.3547 18.9917 12.6441 17.5368C12.9335 16.082 13.6478 14.7456 14.6967 13.6967C15.7456 12.6478 17.082 11.9335 18.5368 11.6441C19.9917 11.3547 21.4997 11.5032 22.8701 12.0709C24.2406 12.6386 25.4119 13.5999 26.236 14.8332C27.0601 16.0666 27.5 17.5166 27.5 19C27.4978 20.9885 26.707 22.8949 25.3009 24.3009C23.8949 25.707 21.9885 26.4978 20 26.5Z" fill="#5DAF4A"/>
</g>
</g>
<defs>
<filter id="filter0_d_306_243" x="0" y="0" width="40" height="40" filterUnits="userSpaceOnUse" color-interpolation-filters="sRGB">
<feFlood flood-opacity="0" result="BackgroundImageFix"/>
<feColorMatrix in="SourceAlpha" type="matrix" values="0 0 0 0 0 0 0 0 0 0 0 0 0 0 0 0 0 0 127 0" result="hardAlpha"/>
<feOffset dy="1"/>
<feGaussianBlur stdDeviation="2"/>
<feComposite in2="hardAlpha" operator="out"/>
<feColorMatrix type="matrix" values="0 0 0 0 0 0 0 0 0 0 0 0 0 0 0 0 0 0 0.25 0"/>
<feBlend mode="hard-light" in2="BackgroundImageFix" result="effect1_dropShadow_306_243"/>
<feBlend mode="normal" in="SourceGraphic" in2="effect1_dropShadow_306_243" result="shape"/>
</filter>
<clipPath id="clip0_306_243">
<rect width="20" height="20" fill="white" transform="translate(10 9)"/>
</clipPath>
</defs>
</svg>
